<?xml version="1.0" encoding="iso-8859-1"?>
<!-- Generator: Adobe Illustrator 19.0.0, SVG Export Plug-In . SVG Version: 6.00 Build 0)  -->
<svg version="1.1" id="Layer_1" xmlns="http://www.w3.org/2000/svg" xmlns:xlink="http://www.w3.org/1999/xlink" x="0px" y="0px"
	 viewBox="0 0 392.598 392.598" style="enable-background:new 0 0 392.598 392.598;" xml:space="preserve">
<path style="fill:#FFFFFF;" d="M370.812,192.689c0-25.018-18.747-45.64-43.636-47.968c-5.236-0.453-9.438-4.719-9.891-9.956
	c-1.422-17.067-11.378-31.741-26.634-39.305c-14.998-7.37-32.453-6.465-46.739,2.392c-7.046,3.943-13.834,0.259-15.903-5.301
	c-15.968-39.693-57.665-58.828-97.164-46.158c-15.774,5.172-28.832,14.933-38.077,27.345h36.461c6.012,0,10.925,4.848,10.925,10.925
	c0,6.077-4.848,10.925-10.925,10.925H81.39c-2.069,6.206-3.426,12.671-3.814,19.394h19.717c6.012,0,10.925,4.848,10.925,10.925
	c0,6.012-4.848,10.925-10.925,10.925H77.899c-1.293,4.59-5.301,7.628-9.956,7.887c-25.794,1.164-46.028,22.238-46.028,48.032
	c0,26.57,21.657,48.226,48.226,48.226h252.509C349.156,240.915,370.812,219.258,370.812,192.689z"/>
<path style="fill:#FFC10D;" d="M325.236,166.507l-4.461-0.388c-13.188-1.228-23.596-11.766-24.63-24.954l-0.388-4.525
	c-0.776-9.438-6.271-17.455-14.61-21.527c-3.62-1.745-7.499-2.715-11.507-2.715c-5.042,0-9.891,1.422-14.158,4.008l-5.624,3.491
	c-14.545,9.05-33.745,2.586-39.887-13.446l-2.327-6.141c-8.275-21.527-29.349-36.073-52.364-36.073
	c-5.947,0-11.83,1.034-17.519,2.844c-26.117,8.598-42.02,34.521-37.883,61.737l0.905,6.012c2.457,16.032-9.568,30.642-25.729,31.354
	l-6.077,0.259c-14.158,0.646-25.212,12.154-25.212,26.246c0,14.545,11.83,26.376,26.376,26.376v0.065h252.251
	c14.481,0,26.57-11.507,26.764-25.923C349.285,179.242,338.941,167.735,325.236,166.507z"/>
<path style="fill:#56ACE0;" d="M196.331,320.43c-8.21,0-14.804,6.659-14.804,14.869s6.659,14.869,14.804,14.869
	c8.21,0,14.869-6.659,14.869-14.869S204.541,320.43,196.331,320.43z"/>
<path style="fill:#194F82;" d="M381.737,324.373H231.305c-3.556-11.442-12.606-20.493-24.113-24.113v-37.56h115.394
	c38.529,0,70.012-31.354,70.012-70.012c0-33.358-23.014-61.414-54.885-68.331c-4.331-21.075-17.907-38.788-37.56-48.42
	c-18.101-8.857-38.659-9.503-56.954-2.133c-22.432-42.602-72.533-63.612-119.337-48.162C81.067,39.8,53.592,80.204,55.467,124.293
	c-31.871,6.659-55.402,34.78-55.402,68.396c0,38.529,31.354,70.012,70.012,70.012h115.394v37.624
	c-11.442,3.556-20.493,12.671-24.113,24.113H10.925C4.913,324.438,0,329.287,0,335.363c0,6.012,4.848,10.925,10.925,10.925h150.368
	c4.655,14.933,18.554,25.729,34.974,25.729c16.356,0,30.384-10.796,34.974-25.729h150.368c6.012,0,10.925-4.848,10.925-10.925
	C392.598,329.222,387.749,324.373,381.737,324.373z M70.077,240.915c-26.57,0-48.226-21.657-48.226-48.226
	c0-25.794,20.234-46.933,46.028-48.032c4.655-0.259,8.663-3.297,9.956-7.887h19.394c6.012,0,10.925-4.848,10.925-10.925
	c0-6.012-4.848-10.925-10.925-10.925H77.511c0.453-6.659,1.745-13.188,3.814-19.394h47.838c6.012,0,10.925-4.848,10.925-10.925
	c0-6.012-4.848-10.925-10.925-10.925H92.703c9.244-12.412,22.303-22.174,38.077-27.345c39.499-12.671,81.196,6.4,97.164,46.222
	c2.133,5.56,8.986,9.244,15.903,5.301c14.287-8.857,31.741-9.826,46.739-2.392c15.321,7.499,25.277,22.238,26.634,39.305
	c0.453,5.236,4.59,9.503,9.891,9.956c24.889,2.327,43.636,22.949,43.636,47.968c0,26.57-21.657,48.226-48.226,48.226H70.077
	L70.077,240.915z M196.331,350.103c-8.21,0-14.804-6.659-14.804-14.869s6.659-14.869,14.804-14.869
	c8.21,0,14.869,6.659,14.869,14.869S204.541,350.103,196.331,350.103z"/>
<g>
</g>
<g>
</g>
<g>
</g>
<g>
</g>
<g>
</g>
<g>
</g>
<g>
</g>
<g>
</g>
<g>
</g>
<g>
</g>
<g>
</g>
<g>
</g>
<g>
</g>
<g>
</g>
<g>
</g>
</svg>
